<svg xmlns="http://www.w3.org/2000/svg" viewBox="0 0 393.11 59.8"><defs><style>.cls-1,.cls-2{fill:#231f20;}.cls-1{stroke:#231f20;stroke-miterlimit:10;stroke-width:1.5px;}</style></defs><title>Asset 1</title><g id="Layer_2" data-name="Layer 2"><g id="Layer_1-2" data-name="Layer 1"><line class="cls-1" x1="81.37" y1="55.59" x2="54.52" y2="2.07"/><line class="cls-1" x1="176.27" y1="56.87" x2="123.43" y2="56.87"/><line class="cls-1" x1="236.21" y1="3.62" x2="209.37" y2="57.12"/><line class="cls-1" x1="374.23" y1="3.34" x2="361.43" y2="28.84"/><line class="cls-1" x1="280.17" y1="56.87" x2="226.12" y2="56.87"/><polygon class="cls-2" points="82.01 57.62 52.64 57.62 52.64 1.57 55.14 1.57 55.14 55.12 82.01 55.12 82.01 57.62"/><polygon class="cls-2" points="209.97 57.6 207.46 57.6 207.46 1.58 236.81 1.58 236.81 4.1 209.97 4.1 209.97 57.6"/><rect class="cls-2" x="208.21" y="28.33" width="21.01" height="2.52"/><path class="cls-2" d="M363.89,58.81a29.22,29.22,0,1,1,29.22-29.22A29.25,29.25,0,0,1,363.89,58.81Zm0-55.92a26.71,26.71,0,1,0,26.71,26.7A26.73,26.73,0,0,0,363.89,2.89Z"/><path class="cls-2" d="M301.28,57.6H286.73v-56h14.55a28,28,0,1,1,0,56Zm-12-2.52h12a25.49,25.49,0,1,0,0-51h-12Z"/><path class="cls-2" d="M15.88,58.81A15.89,15.89,0,0,1,0,42.93H2.52A13.37,13.37,0,1,0,15.88,29.57,14.6,14.6,0,1,1,30.48,15H28A12.08,12.08,0,1,0,15.88,27.05a15.88,15.88,0,0,1,0,31.76Z"/><line class="cls-1" x1="27.04" y1="6.12" x2="3.88" y2="52.29"/><rect class="cls-2" x="40.12" y="1.62" width="2" height="56"/><polygon class="cls-2" points="281.5 57.62 281.16 56.91 253.08 0 225 56.91 224.64 57.62 227.46 57.62 253.08 5.69 278.7 57.62 281.5 57.62"/><polygon class="cls-2" points="178.61 57.62 178.24 56.91 150.16 0 122.08 56.91 121.73 57.62 124.54 57.62 150.16 5.69 175.78 57.62 178.61 57.62"/><rect class="cls-2" x="114.49" y="1.62" width="2.52" height="56.02"/><polygon class="cls-2" points="92.05 59.8 76.83 1.94 79.25 1.3 91.99 49.74 104.12 1.31 106.54 1.92 92.05 59.8"/></g></g></svg>