<svg id="Layer_1" data-name="Layer 1" xmlns="http://www.w3.org/2000/svg" viewBox="0 0 393.11 59.8"><defs><style>.cls-1{fill:#fdfeff;stroke:#fdfeff;stroke-width:1.5px;}.cls-1,.cls-3{stroke-miterlimit:10;}.cls-2,.cls-3{fill:#fff;}.cls-3{stroke:#231f20;stroke-width:0.75px;}</style></defs><title>logo</title><line class="cls-1" x1="81.37" y1="55.59" x2="54.52" y2="2.07"/><line class="cls-1" x1="176.27" y1="56.87" x2="123.43" y2="56.87"/><line class="cls-1" x1="236.21" y1="3.62" x2="209.37" y2="57.12"/><line class="cls-1" x1="374.23" y1="3.34" x2="361.43" y2="28.84"/><line class="cls-1" x1="280.17" y1="56.87" x2="226.12" y2="56.87"/><polygon class="cls-2" points="82.01 57.62 52.64 57.62 52.64 1.57 55.14 1.57 55.14 55.12 82.01 55.12 82.01 57.62"/><polygon class="cls-2" points="209.97 57.6 207.46 57.6 207.46 1.58 236.81 1.58 236.81 4.1 209.97 4.1 209.97 57.6"/><rect class="cls-2" x="208.21" y="28.33" width="21.01" height="2.52"/><path class="cls-2" d="M463.78,451.19A29.22,29.22,0,1,1,493,422,29.24,29.24,0,0,1,463.78,451.19Zm0-55.92a26.71,26.71,0,1,0,26.7,26.7A26.74,26.74,0,0,0,463.78,395.27Z" transform="translate(-99.88 -392.38)"/><path class="cls-2" d="M401.16,450H386.62V394h14.54a28,28,0,1,1,0,56Zm-12-2.52h12a25.49,25.49,0,0,0,0-51h-12Z" transform="translate(-99.88 -392.38)"/><path class="cls-2" d="M115.77,451.19a15.9,15.9,0,0,1-15.89-15.88h2.52A13.37,13.37,0,1,0,115.77,422a14.6,14.6,0,1,1,14.59-14.6h-2.51a12.09,12.09,0,1,0-12.08,12.08,15.88,15.88,0,1,1,0,31.76Z" transform="translate(-99.88 -392.38)"/><line class="cls-1" x1="27.04" y1="6.12" x2="3.88" y2="52.29"/><path class="cls-3" d="M168.05,461.66" transform="translate(-99.88 -392.38)"/><rect class="cls-2" x="40.12" y="1.62" width="2" height="56"/><polygon class="cls-2" points="281.5 57.62 281.16 56.91 253.08 0 225 56.91 224.64 57.62 227.46 57.62 253.08 5.69 278.7 57.62 281.5 57.62"/><polygon class="cls-2" points="178.61 57.62 178.24 56.91 150.16 0 122.08 56.91 121.73 57.62 124.54 57.62 150.16 5.69 175.78 57.62 178.61 57.62"/><rect class="cls-2" x="114.49" y="1.62" width="2.52" height="56.02"/><polygon class="cls-2" points="92.05 59.8 76.83 1.94 79.25 1.3 91.99 49.74 104.12 1.31 106.54 1.92 92.05 59.8"/></svg>